Coordinates
version=1
nRows=6
nColumns=36
inDegrees=yes

Units are S.I. units (second, meters, Newtons, ...)
If the header above contains a line with 'inDegrees', this indicates whether rotational values are in degrees (yes) or radians (no).

endheader
time	pelvis_tilt	pelvis_list	pelvis_rotation	pelvis_tx	pelvis_ty	pelvis_tz	hip_flexion_r	hip_adduction_r	hip_rotation_r	knee_angle_r	knee_angle_r_beta	ankle_angle_r	subtalar_angle_r	mtp_angle_r	hip_flexion_l	hip_adduction_l	hip_rotation_l	knee_angle_l	knee_angle_l_beta	ankle_angle_l	subtalar_angle_l	mtp_angle_l	lumbar_extension	lumbar_bending	lumbar_rotation	arm_flex_r	arm_add_r	arm_rot_r	elbow_flex_r	pro_sup_r	arm_flex_l	arm_add_l	arm_rot_l	elbow_flex_l	pro_sup_l
      0.34000000	     -5.05219360	     -3.51689032	      0.76572101	      0.30494744	      0.90515398	     -0.24374583	     14.06883951	      8.72716683	      2.77845773	     18.75990997	      0.32742220	      7.50810590	     -8.61662199	     -6.12128240	     29.16365094	     -3.68344197	     -1.46597322	     68.67782321	      1.19865414	     -1.95455514	    -22.99993599	     -6.12128240	     -5.50036560	      6.51079348	     -1.75399239	      2.91143072	    -15.52156466	      6.01129800	     44.23352521	    106.26412317	     -3.75583571	    -11.88851841	      1.53032109	     41.51447803	    104.59792786
      0.35000000	     -4.92677532	     -3.08567082	     -0.09801711	      0.31580825	      0.90632126	     -0.24226707	     12.63236334	      8.61853577	      4.47971409	     17.92452458	      0.31284197	      8.04879279	     -8.48987132	     -6.14344763	     30.06731023	     -3.36516843	     -2.23794950	     66.53865302	      1.16131858	     -0.95769435	    -22.30833506	     -6.14344763	     -5.87974120	      5.97168166	     -0.46609720	      3.88361300	    -16.15309759	      7.61217498	     45.34245153	    106.40141217	     -4.03233498	    -11.74038251	      1.16629287	     41.31109561	    104.54582126
      0.36000000	     -4.90791485	     -3.02277606	     -0.78366220	      0.32629719	      0.90681349	     -0.24099496	     11.46327426	      8.82097448	      5.47785432	     17.22657120	      0.30066039	      7.92449058	     -9.29159878	     -6.21653924	     31.25805763	     -3.37104711	     -2.53854385	     64.59202887	      1.12734357	      0.49228334	    -20.90803338	     -6.21653924	     -6.15460028	      5.85320462	      0.15670311	      5.61600200	    -16.72558658	      9.94878457	     45.60700379	    106.24216906	     -4.70570414	    -11.58256833	      0.30405970	     41.50069674	    104.49605339
      0.37000000	     -4.85008157	     -2.87899069	     -1.51528360	      0.33677763	      0.90721389	     -0.23978088	     10.33351244	      8.84807980	      6.25073434	     16.69618563	      0.29140341	      8.26712976	     -9.22855061	     -6.24065686	     32.22476042	     -3.29538703	     -2.88395027	     62.19986420	      1.08559242	      0.91804957	    -20.63102219	     -6.24065686	     -6.49757930	      5.64647864	      1.25635869	      6.81458428	    -17.06021664	     10.51779226	     46.30754485	    106.20294439	     -5.00186801	    -11.45376129	     -0.06182247	     41.49480779	    104.46746498
      0.38000000	     -4.88983089	     -2.77120221	     -2.18020184	      0.34734614	      0.90726956	     -0.23873057	      9.29074047	      8.85616795	      6.86045952	     16.11220941	      0.28121110	      8.50852212	     -9.12878325	     -6.25554086	     33.19939119	     -3.20120087	     -3.01911773	     59.57622841	      1.03980134	      1.36060189	    -20.21762081	     -6.25554086	     -6.65748586	      5.48927080	      2.25059724	      7.97914777	    -17.35143791	     11.02599649	     47.02661190	    106.21394364	     -5.32908096	    -11.34860575	     -0.31630458	     41.42292993	    104.43975507
      0.39000000	     -4.78680082	     -2.74803984	     -2.83816232	      0.35794561	      0.90735530	     -0.23775118	      8.01904872	      8.93634829	      7.59571389	     15.43581968	      0.26940588	      8.89788417	     -9.11834183	     -6.27444331	     33.87547231	     -3.23778004	     -3.11775725	     56.66811110	      0.98904512	      1.88768694	    -19.54492625	     -6.27444331	     -7.02618831	      5.41978610	      3.20923070	      9.20139530	    -17.71952801	     11.73532418	     47.72146480	    106.21800971	     -5.59971731	    -11.18173974	     -0.66968868	     41.36374549	    104.40226766
